<svg xmlns="http://www.w3.org/2000/svg" width="434.79" height="126.63" viewBox="0 0 434.79 126.63"><title>logo-light</title><path d="M75,125.84V60.24s39-36.9,39.33-37.19c.44.51,7.41,10.73,9.58,15.88a62.78,62.78,0,0,1,4.58,17,62.83,62.83,0,0,1-4.5,32A60.3,60.3,0,0,1,114,103.8a67.66,67.66,0,0,1-8,7.9,68.93,68.93,0,0,1-13.86,8.84c-5.15,2.47-16.69,5.3-17,5.37A.56.56,0,0,1,75,125.84Z" transform="translate(0 0)" fill="#fff"></path><path d="M105.74,14.5c-4.43,4.13-8.78,8.12-13.06,12.1-1.24-.72-2.33-1.45-3.49-2.17a44.61,44.61,0,0,0-15.6-5.73,48.85,48.85,0,0,0-14.88-.14,47.23,47.23,0,0,0-17.49,6.16A47.93,47.93,0,0,0,19,54.73a45.59,45.59,0,0,0-1,14A46.38,46.38,0,0,0,23.8,88c0,.07-8.2,8-12.41,12-.65-.94-1.3-1.81-1.81-2.68A56.11,56.11,0,0,1,1.45,77.85,68.9,68.9,0,0,1,0,63.43,61.46,61.46,0,0,1,3.41,43.86,64.55,64.55,0,0,1,38.61,5.58,65.8,65.8,0,0,1,52.83,1.16,126.61,126.61,0,0,1,66.26,0,76,76,0,0,1,75.4.8,63.26,63.26,0,0,1,92,5.8a66.92,66.92,0,0,1,12.34,7.54C104.72,13.7,105.16,14.06,105.74,14.5Z" transform="translate(0 0)" fill="#fff"></path><path d="M66.26,126.63,56,126.41V77.13s10.23-9.72,10.23-9.64S66.26,126.63,66.26,126.63Z" transform="translate(0 0)" fill="#ecab23"></path><path d="M47.1,85.17v39.51l-10.3-3.85.14-26Z" transform="translate(0 0)" fill="#ecab23"></path><path d="M27.36,115.61,20,109.89l7.55-7Z" transform="translate(0 0)" fill="#ecab23"></path><path d="M189.52,104.84a33.53,33.53,0,0,1-13.27-2.6A32.78,32.78,0,0,1,165.58,95,33.25,33.25,0,0,1,158.45,84a35.92,35.92,0,0,1-2.56-13.72,37.49,37.49,0,0,1,2.47-13.77A31.78,31.78,0,0,1,176,38.43a34,34,0,0,1,13.27-2.56,32.7,32.7,0,0,1,12.87,2.42,29.8,29.8,0,0,1,9.64,6.42,23.89,23.89,0,0,1,5.65,8.74l-10.85,5.2a17.56,17.56,0,0,0-6.37-8.43A18.25,18.25,0,0,0,189.25,47a20.7,20.7,0,0,0-11.08,3,20.17,20.17,0,0,0-7.44,8.16,26.65,26.65,0,0,0-2.64,12.2,26.17,26.17,0,0,0,2.73,12.24,20.46,20.46,0,0,0,7.58,8.21,20.91,20.91,0,0,0,11.12,3,22,22,0,0,0,9.42-2,17.1,17.1,0,0,0,6.9-5.74,15,15,0,0,0,2.6-8.83V72L214,76.86H189.25V66.54h31.39v6.73A33.64,33.64,0,0,1,218,86.9a28.6,28.6,0,0,1-7,9.91,30.35,30.35,0,0,1-10,6A33.29,33.29,0,0,1,189.52,104.84Z" transform="translate(0 0)" fill="#fff"></path><path d="M244.94,104.84a18.7,18.7,0,0,1-9.82-2.51,16.48,16.48,0,0,1-6.37-7,23.63,23.63,0,0,1-2.19-10.49V55h11.75V83.85a11.22,11.22,0,0,0,1.21,5.34A8.8,8.8,0,0,0,243,92.78a10.35,10.35,0,0,0,5.16,1.3,10.06,10.06,0,0,0,5.11-1.3,9.09,9.09,0,0,0,3.5-3.64A11.5,11.5,0,0,0,258,83.58V55h11.74v48.78H258.66V94.17l1,1.7A12.67,12.67,0,0,1,254,102.6,18,18,0,0,1,244.94,104.84Z" transform="translate(0 0)" fill="#fff"></path><path d="M301.62,104.84A23.91,23.91,0,0,1,289,101.47a24.34,24.34,0,0,1-8.79-9.19A26.2,26.2,0,0,1,277,79.37a25.88,25.88,0,0,1,3.22-12.91A24.72,24.72,0,0,1,289,57.31a23.59,23.59,0,0,1,12.51-3.41,21.6,21.6,0,0,1,9.91,2.2,17,17,0,0,1,6.86,6.14l-1.79,2.42V35.87h11.74v67.89H317.13V94.35l1.26,2.33a16.3,16.3,0,0,1-7,6A22.74,22.74,0,0,1,301.62,104.84Zm1.25-10.76A12.93,12.93,0,0,0,314.76,87a17.38,17.38,0,0,0,0-15.2,13.63,13.63,0,0,0-19-5.2,13.51,13.51,0,0,0-4.89,5.2,15.91,15.91,0,0,0-1.75,7.58A16.16,16.16,0,0,0,290.9,87a13,13,0,0,0,4.89,5.2A13.44,13.44,0,0,0,302.87,94.08Z" transform="translate(0 0)" fill="#fff"></path><path d="M343.05,103.76V65.47h-8.61V55h8.61V53.36a18.34,18.34,0,0,1,2.29-9.46,15,15,0,0,1,6.41-6,21.57,21.57,0,0,1,9.78-2.07,23.32,23.32,0,0,1,2.37.14c.87.09,1.6.19,2.2.31V46.46a12.18,12.18,0,0,0-1.66-.23c-.51,0-1,0-1.39,0a9.43,9.43,0,0,0-6.1,1.75q-2.15,1.74-2.15,5.42V55h21.34V65.47H354.8v38.29Zm28.7,0V55h11.84v48.78Z" transform="translate(0 0)" fill="#fff"></path><path d="M391.57,103.76V55h11v9.59l-.9-1.7a12.9,12.9,0,0,1,5.61-6.68,17.6,17.6,0,0,1,9.1-2.29A19.27,19.27,0,0,1,426,56.23a16.58,16.58,0,0,1,6.5,6.5,19.38,19.38,0,0,1,2.33,9.64v31.39H423.05V75.15a11.56,11.56,0,0,0-1.26-5.56A9.28,9.28,0,0,0,418.34,66a10.79,10.79,0,0,0-10.27,0,9.13,9.13,0,0,0-3.5,3.63,11.56,11.56,0,0,0-1.25,5.56v28.61Z" transform="translate(0 0)" fill="#fff"></path></svg>